<svg width="420" height="126" viewBox="0 0 420 126" fill="none" xmlns="http://www.w3.org/2000/svg" role="img" aria-labelledby="title desc">
  <title id="title">Fixaro logo placeholder</title>
  <desc id="desc">Original Fixaro wordmark with teal fan and arrow mark.</desc>
  <rect width="420" height="126" rx="24" fill="#0B0F12"/>
  <path d="M72 28c13 0 24 10 24 23v48H72V28Z" fill="url(#paint0_linear)"/>
  <path d="M96 34h64l-17 17h-35L96 63V34Z" fill="#12C7C3"/>
  <path d="M131 27h55v55l-18-18-31 31-17-17 31-31-20-20Z" fill="url(#paint1_linear)"/>
  <circle cx="101" cy="66" r="9" fill="#0B0F12" stroke="#6EF4EA" stroke-width="4"/>
  <path d="M103 55c14-16 35-12 36 8-16 6-27 2-36-8Z" fill="#B9C2C7"/>
  <path d="M113 70c20 3 27 24 9 35-13-11-14-22-9-35Z" fill="#B9C2C7"/>
  <path d="M91 72c-7 19-29 21-35 1 14-10 25-8 35-1Z" fill="#B9C2C7"/>
  <text x="197" y="70" fill="#F5F7F8" font-family="Arial, Helvetica, sans-serif" font-size="44" font-weight="800" letter-spacing="0">Fixaro</text>
  <text x="200" y="97" fill="#B9C2C7" font-family="Arial, Helvetica, sans-serif" font-size="18" font-weight="600" letter-spacing="4">AC SERVICE COMPANY</text>
  <defs>
    <linearGradient id="paint0_linear" x1="72" y1="28" x2="120" y2="94" gradientUnits="userSpaceOnUse">
      <stop stop-color="#12C7C3"/>
      <stop offset="1" stop-color="#057B80"/>
    </linearGradient>
    <linearGradient id="paint1_linear" x1="120" y1="27" x2="183" y2="89" gradientUnits="userSpaceOnUse">
      <stop stop-color="#6EF4EA"/>
      <stop offset="1" stop-color="#057B80"/>
    </linearGradient>
  </defs>
</svg>
