<svg width="640" height="480" viewBox="0 0 640 480" fill="none" xmlns="http://www.w3.org/2000/svg" role="img" aria-labelledby="title desc">
  <title id="title">Water leakage service placeholder</title>
  <desc id="desc">AC leakage inspection illustration with teal water drops.</desc>
  <rect width="640" height="480" rx="32" fill="#111820"/>
  <rect x="90" y="105" width="460" height="155" rx="26" fill="#F5F7F8"/>
  <path d="M138 204h356" stroke="#7D8A92" stroke-width="12" stroke-linecap="round"/>
  <path d="M230 294c0 38-52 38-52 0 0-19 26-56 26-56s26 37 26 56Z" fill="#12C7C3"/>
  <path d="M330 337c0 47-64 47-64 0 0-24 32-68 32-68s32 44 32 68Z" fill="#6EF4EA"/>
  <path d="M444 301c0 34-46 34-46 0 0-17 23-50 23-50s23 33 23 50Z" fill="#057B80"/>
  <path d="M470 324l34 34 68-78" stroke="#C8A45D" stroke-width="12" stroke-linecap="round" stroke-linejoin="round"/>
</svg>
